<?xml version="1.0" standalone="no"?>
<!DOCTYPE svg PUBLIC "-//W3C//DTD SVG 1.1//EN" "http://www.w3.org/Graphics/SVG/1.1/DTD/svg11.dtd" >
<svg xmlns="http://www.w3.org/2000/svg">
<metadata></metadata>
<defs>
<font id="aauxprolight" horiz-adv-x="1001" >
<font-face units-per-em="2048" ascent="1587" descent="-461" />
<missing-glyph horiz-adv-x="552" />
<glyph horiz-adv-x="2048" />
<glyph horiz-adv-x="2048" />
<glyph unicode="&#xd;" horiz-adv-x="681" />
<glyph horiz-adv-x="1349" d="M106 659v105h89v666h415q98 0 170 -8.5t144.5 -32t121 -64.5t84 -111.5t50.5 -166.5q16 -125 16 -332q0 -209 -16.5 -330t-64.5 -200t-128 -117.5t-166 -53t-209 -14.5h-417v659h-89zM299 104h311q84 0 138.5 4.5t117 20.5t101.5 47t68.5 86t41.5 135q15 105 15 318 q0 215 -15 317q-14 98 -53 160.5t-107.5 90.5t-134 36t-172.5 8h-311v-563h334v-105h-334v-555z" />
<glyph horiz-adv-x="1062" d="M123 485q0 506 409 506q98 0 177 -35l-99 224h-245v92h206l-116 264h98l117 -264h180v-92h-139l120 -258q6 -14 14.5 -29.5t18.5 -34t17 -29.5q59 -113 59 -344q0 -504 -408 -503q-410 0 -409 503zM221 485q0 -188 66.5 -296.5t242.5 -108.5q92 0 157 31.5t96.5 91 t45 127t13.5 155.5q0 90 -12.5 158t-45 127t-96 91t-156.5 32q-94 0 -157.5 -32t-96 -91t-45 -127t-12.5 -158z" />
<glyph horiz-adv-x="1015" d="M72 518v105l78 32v775h104v-728l344 154v-104l-344 -154v-496h700v-102h-804v553z" />
<glyph horiz-adv-x="509" d="M72 539v104l110 51v736h99v-693l157 72v-104l-157 -70v-406q0 -63 20.5 -97t77.5 -34v-98q-100 0 -148.5 62.5t-48.5 166.5v361z" />
<glyph horiz-adv-x="1218" d="M92 373l103 16q27 -160 146.5 -233.5t293.5 -73.5q156 0 271.5 81t115.5 232q0 92 -48 153.5t-126 93.5t-171 55.5t-186.5 48t-171 61.5t-126 107.5t-48.5 172.5q0 176 130.5 264.5t314.5 88.5q356 0 487 -281l-94 -45q-57 123 -152.5 172t-240.5 49q-139 0 -239.5 -58 t-100.5 -190q0 -80 48 -133t126 -80.5t171 -50t186 -50.5t171 -68.5t126 -118.5t48 -191q0 -195 -146 -306.5t-345 -111.5q-213 0 -360.5 97.5t-182.5 298.5zM334 1886h137l147 -252l146 252h137l-194 -299h-179z" />
<glyph horiz-adv-x="915" d="M82 258l96 16q37 -195 297 -194q102 0 181 50t79 144q0 80 -63.5 124t-154.5 63.5t-181 43t-153.5 81t-63.5 155.5q0 127 96 189.5t229 62.5q256 0 353 -196l-88 -43q-39 80 -103.5 110.5t-161.5 30.5q-55 0 -103 -11.5t-86 -48t-38 -94.5q0 -68 63.5 -105.5t153.5 -56 t181.5 -44t155 -90.5t63.5 -171q0 -137 -108 -214.5t-251 -77.5q-152 0 -259 67.5t-134 208.5zM184 1391h138l145 -252l147 252h138l-195 -299h-178z" />
<glyph horiz-adv-x="1136" d="M51 1430h115l403 -826l402 826h114l-464 -959v-471h-105v475zM432 1587l174 299h137l-194 -299h-117z" />
<glyph horiz-adv-x="897" d="M31 979h104l314 -838l311 838h106l-458 -1229q-78 -203 -267 -201h-39v99h41q121 0 172 137l80 215zM332 1116l174 299h137l-194 -299h-117z" />
<glyph horiz-adv-x="1277" d="M195 0v1430h104v-302h412q465 0 465 -391q0 -389 -465 -389h-412v-348h-104zM299 451h412q172 0 267 62t95 224q0 164 -95 226.5t-267 62.5h-412v-575z" />
<glyph horiz-adv-x="1040" d="M184 -451v1881h99v-558q98 119 276 119q389 0 389 -506q0 -504 -389 -503q-184 0 -276 108v-541h-99zM283 332q0 -113 80.5 -182.5t195.5 -69.5q90 0 150.5 32.5t89 94t40 127t11.5 151.5q0 68 -6 122.5t-24.5 109.5t-49.5 92t-85 60.5t-126 23.5q-117 0 -196.5 -69.5 t-79.5 -184.5v-307z" />
<glyph horiz-adv-x="1169" d="M92 0v96l840 1231h-766v103h891v-103l-834 -1223h834v-104h-965zM334 1886h137l147 -252l146 252h137l-194 -299h-179z" />
<glyph horiz-adv-x="913" d="M82 0v106l614 775h-565v98h690v-100l-620 -781h620v-98h-739zM184 1391h138l145 -252l147 252h138l-195 -299h-178z" />
<glyph horiz-adv-x="1593" d="M82 1298l244 144h45v-881h-84v762l-162 -96zM369 0l618 1430h92l-618 -1430h-92zM993 0v74v2q70 184 211 319q119 111 161 168.5t42 106.5q0 68 -48 99.5t-104 31.5q-104 0 -161 -107l-7 -10l-73 39l6 10q80 152 235 152q94 0 165 -57.5t71 -157.5q0 -70 -47 -139.5 t-180 -196.5q-113 -104 -177 -250h404v-84h-498z" />
<glyph horiz-adv-x="1515" d="M82 1298l244 144h45v-881h-84v762l-162 -96zM369 0l618 1430h92l-618 -1430h-92zM936 225v80l360 578h99l-357 -574h262v348l84 -16v-332h60v-84h-60v-225h-84v225h-364z" />
<glyph horiz-adv-x="524" d="M82 1298l244 144h45v-881h-84v762l-162 -96z" />
<glyph horiz-adv-x="1681" d="M92 741l80 27l4 -12q16 -51 60.5 -83t97.5 -32q68 0 117 49t49 119t-49.5 120t-116.5 50h-47v84h39q66 0 111.5 43t45.5 106q0 61 -46 105.5t-111 44.5q-51 0 -92 -28.5t-58 -76.5l-4 -10l-80 27l4 12q25 72 88.5 116t141.5 44q100 0 170.5 -68.5t70.5 -165.5 q0 -119 -100 -190q117 -74 117 -213q0 -104 -74 -178t-176 -74q-82 0 -147.5 48t-90.5 124zM532 0l621 1430h90l-618 -1430h-93zM1100 225v80l360 578h101l-359 -574h264v348l84 -16v-332h60v-84h-60v-225h-84v225h-366z" />
<glyph horiz-adv-x="675" d="M92 741l80 27l4 -12q16 -51 60.5 -83t97.5 -32q68 0 117 49t49 119t-49.5 120t-116.5 50h-47v84h39q66 0 111.5 43t45.5 106q0 61 -46 105.5t-111 44.5q-51 0 -92 -28.5t-58 -76.5l-4 -10l-80 27l4 12q25 72 88.5 116t141.5 44q100 0 170.5 -68.5t70.5 -165.5 q0 -119 -100 -190q117 -74 117 -213q0 -104 -74 -178t-176 -74q-82 0 -147.5 48t-90.5 124z" />
<glyph horiz-adv-x="681" d="M92 561v74v2q74 186 211 319q121 113 162 168.5t41 104.5q0 70 -48 100.5t-104 30.5q-104 0 -161 -107l-7 -10l-73 39l6 10q80 152 235 152q94 0 165 -57.5t71 -157.5q0 -70 -47 -139.5t-181 -194.5q-109 -100 -176 -250h404v-84h-498z" />
<glyph horiz-adv-x="636" d="M256 -156v781h104v-781h-104zM256 807v780h104v-780h-104z" />
<glyph horiz-adv-x="970" d="M82 508v104h807v-104h-807z" />
<glyph horiz-adv-x="890" d="M123 311l250 250l-250 248l74 74l247 -250l250 250l74 -74l-250 -248l250 -250l-74 -73l-250 249l-247 -249z" />
<glyph unicode=" "  horiz-adv-x="552" />
<glyph unicode="&#x09;" horiz-adv-x="552" />
<glyph unicode="&#xa0;" horiz-adv-x="552" />
<glyph unicode="!" horiz-adv-x="573" d="M205 63q0 35 24.5 58.5t57 23.5t57.5 -23.5t25 -58.5q0 -33 -23.5 -56t-58.5 -23t-58.5 23.5t-23.5 55.5zM231 735v695h111v-695l-20 -383h-68z" />
<glyph unicode="&#x22;" horiz-adv-x="696" d="M143 1120v310q0 29 20.5 48t47.5 19t47.5 -19.5t20.5 -47.5v-310h-136zM418 1120v310q0 29 20.5 48t47 19t47 -19.5t20.5 -47.5v-310h-135z" />
<glyph unicode="#" horiz-adv-x="1417" d="M113 436l20 101h258l76 356h-256l20 102h256l95 435h100l-92 -435h356l92 435h101l-92 -435h258l-23 -102h-256l-76 -356h256l-20 -101h-258l-92 -436h-101l92 436h-356l-94 -436h-101l93 436h-256zM492 537h358l76 356h-359z" />
<glyph unicode="$" horiz-adv-x="1036" d="M92 442l103 25q35 -115 100 -172t184 -68v473q-352 70 -352 310q0 137 104.5 220t247.5 89v111h103v-111q104 -8 190 -68.5t131 -154.5l-90 -41q-88 154 -231 162v-433q358 -90 358 -319q0 -147 -102.5 -235.5t-255.5 -104.5v-125h-103v127q-158 14 -250 89t-137 226z M233 1010q0 -150 246 -205v412q-104 -2 -175 -54.5t-71 -152.5zM582 225q111 18 183.5 77t72.5 163q0 47 -23.5 83t-69 62.5t-78 40t-85.5 29.5v-455z" />
<glyph unicode="%" horiz-adv-x="1613" d="M123 1046.5q0 106.5 24.5 191.5t93 148.5t177.5 63.5q158 0 226.5 -118t68.5 -285.5t-69 -285.5t-226 -118q-109 0 -177.5 63.5t-93 148.5t-24.5 191.5zM215 1046.5q0 -311.5 203 -311.5t203 311.5t-203 311.5t-203 -311.5zM442 0l621 1430h106l-618 -1430h-109zM901 381 q0 168 68.5 285.5t226.5 117.5q109 0 177.5 -63.5t93 -148.5t24.5 -191q0 -104 -24.5 -189.5t-93 -148.5t-177.5 -63t-178.5 63t-93 148t-23.5 190zM993 381q0 -309 203 -309t203 309q0 311 -203 311t-203 -311z" />
<glyph unicode="&#x26;" horiz-adv-x="1329" d="M100 367q0 156 72 256t217 186q-135 199 -135 346q0 125 79 207t204 82q123 0 195.5 -77t72.5 -200q0 -127 -70.5 -210t-206.5 -171q205 -281 430 -493q88 147 89 356h104q0 -250 -115 -428q103 -90 158 -131l-51 -90q-115 90 -170 137q-156 -158 -426 -157 q-188 0 -317.5 102t-129.5 285zM205 367q0 -133 101.5 -211t240.5 -78q215 0 348 135q-231 217 -451 516q-127 -80 -183 -155.5t-56 -206.5zM356 1155q0 -129 119 -293q72 47 113 80t77.5 94t36.5 131q0 78 -44 126t-121 48q-84 0 -132.5 -51t-48.5 -135z" />
<glyph unicode="'" horiz-adv-x="421" d="M143 1120v310q0 29 20.5 48t47.5 19t47.5 -19.5t20.5 -47.5v-310h-136z" />
<glyph unicode="(" horiz-adv-x="647" d="M123 715q0 193 79 388t214 327h129q-143 -113 -231.5 -318t-88.5 -397q0 -190 88.5 -396t231.5 -319h-129q-137 131 -215 325.5t-78 389.5z" />
<glyph unicode=")" horiz-adv-x="647" d="M123 0q143 113 231 318.5t88 396.5q0 193 -88 397.5t-231 317.5h129q135 -131 214 -326.5t79 -388.5q0 -195 -78 -389.5t-215 -325.5h-129z" />
<glyph unicode="*" horiz-adv-x="866" d="M92 1145l33 98l264 -94l-8 281h104l-8 -281l264 94l33 -98l-270 -80l172 -223l-84 -60l-160 232l-158 -232l-84 60l172 223z" />
<glyph unicode="+" horiz-adv-x="1005" d="M92 508v104h359v359h104v-359h358v-104h-358v-358h-104v358h-359z" />
<glyph unicode="," horiz-adv-x="430" d="M133 66q0 33 23.5 56t58.5 23t58.5 -23.5t23.5 -55.5v-91l-156 -251h-8v342z" />
<glyph unicode="-" horiz-adv-x="792" d="M133 508v104h526v-104h-526z" />
<glyph unicode="." horiz-adv-x="444" d="M133 72q0 37 25.5 62.5t62.5 25.5t63.5 -25.5t26.5 -62.5t-26.5 -62.5t-63.5 -25.5t-62.5 25.5t-25.5 62.5z" />
<glyph unicode="/" horiz-adv-x="825" d="M41 -156l633 1741h110l-632 -1741h-111z" />
<glyph unicode="0" horiz-adv-x="1140" d="M102 714.5q0 100.5 11.5 193.5t43 193.5t82 172.5t136.5 119t196.5 47t195.5 -47t135 -119t82 -172.5t43 -193.5t11 -193.5t-11 -193.5t-43 -193.5t-82 -174t-135 -120.5t-195.5 -47t-196.5 47t-136.5 120.5t-82 174t-43 193.5t-11.5 193.5zM203 715q0 -84 7 -160 t30.5 -166t62.5 -154.5t107.5 -108.5t160.5 -44q113 0 191 62.5t113.5 167t49 199.5t13.5 204q0 84 -7 159.5t-30.5 165.5t-62.5 153.5t-107.5 106.5t-159.5 43q-92 0 -160.5 -43t-107.5 -106.5t-62.5 -153.5t-30.5 -165.5t-7 -159.5z" />
<glyph unicode="1" horiz-adv-x="722" d="M82 1214l313 216h62v-1430h-103v1290l-219 -147z" />
<glyph unicode="2" horiz-adv-x="1124" d="M123 0v100q127 334 377 535q35 29 97 69.5t100 70.5t80 72t62.5 98t20.5 126q0 129 -93 203t-228 74q-104 0 -187.5 -49.5t-122.5 -143.5l-88 41q51 119 159 184.5t239 65.5q182 0 303 -99.5t121 -277.5q0 -84 -20.5 -149.5t-67 -116.5t-86 -83t-112.5 -82t-114 -83 q-104 -82 -198.5 -209t-131.5 -246h768v-100h-878z" />
<glyph unicode="3" horiz-adv-x="1042" d="M102 264l97 31q33 -102 116.5 -156.5t194.5 -54.5q139 0 232.5 87t93.5 224q0 154 -97.5 232t-253.5 75v89q143 -2 231.5 66.5t88.5 209.5q0 121 -92 203t-213 82q-98 0 -180 -53.5t-113 -145.5l-94 35q49 121 153.5 189.5t237.5 68.5q170 0 284.5 -105.5t114.5 -273.5 q0 -236 -190 -317q111 -41 169 -136.5t58 -218.5q0 -186 -121 -297.5t-309 -111.5q-150 0 -256.5 70.5t-151.5 207.5z" />
<glyph unicode="4" horiz-adv-x="1110" d="M92 375v100l602 955h115l-598 -955h557v608l100 -20v-588h140v-100h-140v-375h-100v375h-676z" />
<glyph unicode="5" horiz-adv-x="1081" d="M123 258l96 31q31 -98 114 -151.5t191 -53.5q170 0 261.5 109.5t91.5 281.5q0 170 -89.5 278.5t-257.5 108.5q-160 0 -272 -108h-94v676h721v-97h-627v-473q117 98 270 98q215 0 333 -133t118 -350t-121 -353t-336 -136q-141 0 -249.5 70.5t-149.5 201.5z" />
<glyph unicode="6" horiz-adv-x="1097" d="M102 483q0 584 504 947l156 2q-209 -137 -355.5 -323.5t-187.5 -408.5q143 186 338 187q199 0 318.5 -134t119.5 -327q0 -186 -126 -312t-314 -126q-207 0 -330 142t-123 353zM205 434q0 -141 105.5 -245.5t246.5 -104.5q143 0 241.5 98.5t98.5 243.5q0 150 -92 256 t-248 106q-141 0 -246.5 -106.5t-105.5 -247.5z" />
<glyph unicode="7" horiz-adv-x="1005" d="M82 1210v220h842v-101q-211 -229 -346.5 -561t-124.5 -768h-115q-2 238 37 444.5t112.5 370.5t144 277.5t169.5 236.5h-619v-119h-100z" />
<glyph unicode="8" horiz-adv-x="1085" d="M102 395q0 125 58.5 219.5t169.5 135.5q-96 41 -142.5 128t-46.5 189q0 168 116 271.5t286 103.5t285.5 -103.5t115.5 -271.5q0 -100 -47 -188t-141 -129q111 -41 169 -135.5t58 -219.5q0 -184 -126 -296.5t-314.5 -112.5t-314.5 112.5t-126 296.5zM205 395 q0 -137 98 -224t240 -87q139 0 237.5 87t98.5 224q0 147 -93.5 225t-242.5 78q-152 0 -245 -77.5t-93 -225.5zM244 1067q0 -131 83 -201.5t216 -70.5q135 0 217 69.5t82 202.5q0 121 -88 200t-211 79t-211 -79t-88 -200z" />
<glyph unicode="9" horiz-adv-x="1062" d="M92 1006q0 180 125 309t305 129q205 0 322 -142.5t117 -351.5q0 -293 -133.5 -533.5t-378.5 -416.5h-144q205 139 350.5 326.5t186.5 404.5q-123 -162 -322 -162q-182 0 -305 126t-123 311zM190 1006q0 -137 96.5 -238.5t233.5 -101.5q143 0 239.5 98.5t96.5 241.5 q0 139 -98.5 240.5t-237.5 101.5q-137 0 -233.5 -101.5t-96.5 -240.5z" />
<glyph unicode=":" horiz-adv-x="444" d="M133 72q0 37 26.5 62.5t61.5 25.5q37 0 63.5 -25.5t26.5 -62.5t-26.5 -62.5t-63.5 -25.5q-35 0 -61.5 25.5t-26.5 62.5zM133 692q0 37 26.5 63.5t61.5 26.5q37 0 63.5 -26.5t26.5 -63.5q0 -35 -26.5 -61.5t-63.5 -26.5q-35 0 -61.5 26.5t-26.5 61.5z" />
<glyph unicode=";" horiz-adv-x="464" d="M143 692q0 37 26 63.5t62.5 26.5t63.5 -26.5t27 -63.5t-27 -62.5t-63.5 -25.5t-62.5 25.5t-26 62.5zM150 66q0 33 23.5 56t58 23t58 -23.5t23.5 -55.5v-91l-153 -251h-10v342z" />
<glyph unicode="&#x3c;" horiz-adv-x="915" d="M102 715l584 715h127l-584 -715l584 -715h-127z" />
<glyph unicode="=" horiz-adv-x="1046" d="M113 258v102h821v-102h-821zM113 666v100h821v-100h-821z" />
<glyph unicode="&#x3e;" horiz-adv-x="915" d="M102 0l584 715l-584 715h127l584 -715l-584 -715h-127z" />
<glyph unicode="?" horiz-adv-x="958" d="M63 1079q0 164 121 265.5t289 101.5q170 0 287 -103.5t117 -271.5q0 -94 -36 -153.5t-87.5 -91t-104.5 -61.5t-92 -89.5t-43 -149.5l-8 -170h-68q-14 113 -14 170q0 109 36 179.5t87 105.5t102 63.5t87 75.5t36 121q0 127 -86 199.5t-213 72.5q-125 0 -219 -71.5 t-92 -192.5h-99zM393 63q0 35 24.5 58.5t57.5 23.5t56.5 -24.5t23.5 -57t-23.5 -56t-56.5 -23.5t-57.5 23.5t-24.5 55.5z" />
<glyph unicode="@" horiz-adv-x="1433" d="M123 477q0 147 54 312t147.5 309.5t234.5 240t299 95.5q113 0 200 -52.5t138 -138.5t77.5 -186.5t26.5 -204.5q0 -55 -19 -152.5t-21 -140.5l-35 -563l-103 6l13 229q-63 -109 -160.5 -182.5t-208.5 -73.5q-143 0 -218 115t-75 264q0 131 57.5 276.5t171 255t250.5 109.5 q164 0 246 -161q0 86 -17.5 168.5t-54 158.5t-107.5 123t-165 47q-109 0 -209 -57t-174 -150.5t-130 -206t-85 -226t-29 -212.5q0 -125 56.5 -252t144.5 -182l-55 -88q-121 78 -185.5 221.5t-64.5 298.5zM578 356q0 -104 45 -191t141 -87q106 0 196.5 95t135.5 217t45 224 q0 104 -46 190.5t-143 86.5q-106 0 -196 -95.5t-134 -216t-44 -223.5z" />
<glyph unicode="A" horiz-adv-x="1263" d="M20 0l547 1430h129l547 -1430h-110l-168 436h-666l-168 -436h-111zM336 535h592l-297 776z" />
<glyph unicode="B" horiz-adv-x="1241" d="M154 0v1430h479q207 0 334 -89.5t127 -285.5q0 -100 -47.5 -189.5t-133.5 -126.5q111 -33 173.5 -130t62.5 -218q0 -207 -131 -299t-348 -92h-516zM258 102h412q172 0 274.5 63.5t102.5 225.5q0 293 -377 293h-412v-582zM258 776h389q162 0 253 61.5t91 217.5 q0 274 -358 274h-375v-553z" />
<glyph unicode="C" horiz-adv-x="1173" d="M92 714.5q0 114.5 16.5 217t57.5 199t103.5 165t160.5 110.5t221 42q139 0 237.5 -54.5t192.5 -170.5l-77 -66q-80 98 -159 142t-194 44q-106 0 -187 -36.5t-130 -96t-81 -143.5t-44 -169t-12 -183.5t12 -183.5t44 -168.5t81 -143t130 -96.5t187 -37q115 0 194 44 t159 142l77 -65q-94 -117 -192 -171t-238 -54q-123 0 -221 42t-160.5 110.5t-103.5 164.5t-57.5 198.5t-16.5 217z" />
<glyph unicode="D" horiz-adv-x="1277" d="M154 0v1430h415q125 0 210 -13.5t165 -52.5t128 -118t67 -199q16 -111 16 -332t-16 -330q-18 -123 -66.5 -202t-127.5 -117.5t-164 -52t-210 -13.5h-417zM258 104h311q102 0 178 14.5t128.5 32t86 63.5t51 80t27 113.5t10.5 130t1 162.5v15v14q0 129 -2 187.5 t-15.5 144.5t-43 122t-82 76.5t-136.5 54t-203 13.5h-311v-1223z" />
<glyph unicode="E" horiz-adv-x="1144" d="M154 0v1430h888v-103h-784v-536h686v-99h-686v-590h784v-102h-888z" />
<glyph unicode="F" horiz-adv-x="1103" d="M154 0v1430h868v-103h-764v-536h686v-97h-686v-694h-104z" />
<glyph unicode="G" horiz-adv-x="1265" d="M92 715q0 141 31 267t95.5 233.5t177 170t261.5 62.5q139 0 237.5 -54.5t192.5 -170.5l-77 -66q-80 98 -159 142t-194 44q-131 0 -225 -54t-143 -147t-70.5 -198.5t-21.5 -228.5q0 -121 21.5 -225.5t69.5 -198.5t140 -149.5t219 -55.5q111 0 188.5 50t117.5 135 t57.5 176.5t17.5 193.5h-369v104h474l-3 -745h-102v215q-102 -233 -381 -233q-121 0 -218 42t-158.5 112.5t-102.5 166.5t-58.5 197.5t-17.5 214.5z" />
<glyph unicode="H" horiz-adv-x="1318" d="M154 0v1430h104v-639h803v639h104v-1430h-104v692h-803v-692h-104z" />
<glyph unicode="I" horiz-adv-x="452" d="M174 0v1430h105v-1430h-105z" />
<glyph unicode="J" horiz-adv-x="1067" d="M61 281l101 26q29 -111 113.5 -164t205.5 -53q178 0 259 82t81 258v1000h103v-1000q0 -444 -443 -444q-156 0 -268.5 74.5t-151.5 220.5z" />
<glyph unicode="K" horiz-adv-x="1124" d="M154 0v1430h104v-713l637 713h135l-635 -711l688 -719h-147l-678 715v-715h-104z" />
<glyph unicode="L" horiz-adv-x="1009" d="M154 0v1430h104v-1334h700v-96h-804z" />
<glyph unicode="M" horiz-adv-x="1470" d="M154 0v1430h104l477 -1287l477 1287h105v-1430h-105v1151l-426 -1151h-104l-424 1147v-1147h-104z" />
<glyph unicode="N" horiz-adv-x="1269" d="M154 0v1430h110l750 -1244v1244h102v-1430h-110l-748 1243v-1243h-104z" />
<glyph unicode="O" horiz-adv-x="1302" d="M92 714.5q0 145.5 29 269.5t90 231.5t174 170t266.5 62.5t266 -62.5t174 -170t90 -231.5t28.5 -269.5t-28.5 -269t-90 -231.5t-174 -170t-266 -62t-266.5 62t-174 170t-90 231.5t-29 269zM197 715q0 -123 20.5 -226.5t68.5 -198.5t141 -149.5t224 -54.5t225.5 54.5 t142.5 149.5t68.5 198.5t20.5 226.5t-20.5 226t-68.5 198.5t-142.5 149.5t-225.5 54t-224 -54t-141 -149.5t-68.5 -198.5t-20.5 -226z" />
<glyph unicode="P" horiz-adv-x="1206" d="M154 0v1430h516q465 0 465 -391.5t-465 -391.5h-412v-647h-104zM258 748h412q170 0 266 64t96 226q0 164 -95 225.5t-267 61.5h-412v-577z" />
<glyph unicode="Q" horiz-adv-x="1292" d="M92 714.5q0 145.5 29 269.5t90 231.5t174 170t266.5 62.5t267 -62.5t175 -170t89 -231.5t27.5 -269q0 -362 -147 -543l141 -172h-135l-80 98q-144 -116 -335 -116h-3q-154 0 -266.5 62t-173.5 170t-90 231.5t-29 269zM197 715q0 -123 20.5 -226.5t68.5 -198.5t141 -149.5 t224 -54.5q160 0 271 92q-115 131 -271 146v98q209 -18 342 -170q115 154 115 463q0 96 -12.5 181t-44 169t-80.5 144.5t-131 97t-189 36.5q-131 0 -224 -54t-141 -149.5t-68.5 -198.5t-20.5 -226z" />
<glyph unicode="R" horiz-adv-x="1214" d="M154 0v1430h479q205 0 325.5 -94.5t120.5 -291.5q0 -176 -100 -273t-279 -109q57 -55 97 -117l315 -545h-121l-299 516q-84 143 -186 143h-248v-659h-104zM258 760h375h2q342 0 342 284q0 281 -344 281h-375v-565z" />
<glyph unicode="S" horiz-adv-x="1218" d="M92 358l103 17q18 -109 87.5 -176.5t156.5 -92t196 -24.5q156 0 271.5 81t115.5 232q0 92 -48 153.5t-126 93.5t-171 55.5t-186.5 48t-171 61.5t-126 107.5t-48.5 172.5q0 176 131.5 266.5t313.5 90.5q354 0 487 -285l-94 -45q-57 123 -153.5 174t-239.5 51 q-139 0 -239.5 -60t-100.5 -192q0 -80 48 -133t126 -80.5t171 -50t186 -50.5t171 -68.5t126 -118.5t48 -191q0 -195 -145 -304t-346 -109q-477 0 -543 376z" />
<glyph unicode="T" horiz-adv-x="1093" d="M41 1327v103h1012v-103h-455v-1327h-102v1327h-455z" />
<glyph unicode="U" horiz-adv-x="1298" d="M143 616v814h105v-814q0 -117 16.5 -203.5t58.5 -165.5t123.5 -120t202.5 -41t203 42t124 120t58.5 166t16.5 202v814h104v-814q0 -297 -114.5 -465.5t-391.5 -168.5q-506 0 -506 634z" />
<glyph unicode="V" horiz-adv-x="1130" d="M31 1430h108l426 -1260l426 1260h109l-479 -1430h-111z" />
<glyph unicode="W" horiz-adv-x="1566" d="M61 1430h107l281 -1203l280 1203h107l280 -1203l283 1203h106l-336 -1430h-104l-283 1202l-280 -1202h-107z" />
<glyph unicode="X" horiz-adv-x="1161" d="M51 0l469 737l-440 693h123l379 -596l376 596h123l-438 -693l467 -737h-123l-405 641l-408 -641h-123z" />
<glyph unicode="Y" horiz-adv-x="1136" d="M51 1430h115l403 -826l402 826h114l-464 -959v-471h-105v475z" />
<glyph unicode="Z" horiz-adv-x="1169" d="M92 0v96l840 1231h-766v103h891v-103l-834 -1223h834v-104h-965z" />
<glyph unicode="[" horiz-adv-x="550" d="M143 -125v1679h306v-84h-201v-1511h201v-84h-306z" />
<glyph unicode="\" horiz-adv-x="825" d="M41 1585h111l632 -1741h-110z" />
<glyph unicode="]" horiz-adv-x="550" d="M143 -41h203v1511h-203v84h306v-1679h-306v84z" />
<glyph unicode="^" horiz-adv-x="1050" d="M113 825l354 605h117l354 -605l-86 -51l-326 557l-327 -557z" />
<glyph unicode="_" horiz-adv-x="1083" d="M51 0h981v-100h-981v100z" />
<glyph unicode="`" horiz-adv-x="618" d="M154 1415h137l174 -299h-117z" />
<glyph unicode="a" horiz-adv-x="954" d="M92 276q0 135 96.5 211t233.5 76h143q119 0 164 49v95q0 82 -72.5 134t-156.5 52q-94 0 -167 -40t-100 -122l-94 29q84 231 365 231q123 0 223 -78.5t100 -199.5v-609l35 -94l-90 -26l-39 98q-129 -102 -295 -102q-150 0 -248 76.5t-98 219.5zM193 276q0 -96 71.5 -147 t173.5 -51q164 0 291 129v293q-55 -31 -139 -31h-168q-96 0 -162.5 -50t-66.5 -143z" />
<glyph unicode="b" horiz-adv-x="999" d="M143 0v1430h99v-558q94 119 276 119q389 0 389 -506q0 -503 -387 -503h-2q-197 0 -276 114v-96h-99zM242 332q0 -113 80.5 -182.5t195.5 -69.5q90 0 150.5 32.5t89 94t40 127t11.5 151.5q0 68 -6 122.5t-24.5 109.5t-49.5 92t-85 60.5t-126 23.5q-117 0 -196.5 -69.5 t-79.5 -184.5v-307z" />
<glyph unicode="c" horiz-adv-x="946" d="M92 489q0 221 110.5 364.5t325.5 143.5q106 0 178 -34.5t148 -116.5l-72 -66q-59 68 -115.5 96.5t-138.5 28.5q-174 0 -252.5 -116.5t-78.5 -299t77.5 -298t253.5 -115.5q82 0 138.5 28.5t115.5 96.5l72 -66q-76 -84 -147.5 -117.5t-178.5 -33.5q-215 0 -325.5 143 t-110.5 362z" />
<glyph unicode="d" horiz-adv-x="1007" d="M92 485q0 506 397 506q168 0 271 -108v547h98v-1334l6 -18q6 -20 13.5 -40t7.5 -24l-94 -28l-31 104q-101 -108 -272 -108h-3q-92 0 -161.5 26.5t-112.5 71.5t-70.5 111.5t-38 137t-10.5 156.5zM193 485q0 -86 11 -151.5t40.5 -127t90 -94t150.5 -32.5q117 0 196 68.5 t79 183.5v307q0 115 -78 184.5t-193 69.5q-90 0 -151.5 -33t-92 -94t-41.5 -127t-11 -154z" />
<glyph unicode="e" horiz-adv-x="976" d="M92 485q0 227 99.5 366.5t318.5 139.5q190 0 282.5 -124.5t92.5 -321.5v-82h-690q4 -184 80.5 -283.5t254.5 -99.5q168 0 252 108l78 -61q-111 -145 -330 -145q-438 0 -438 503zM197 561h587q-4 332 -274 332q-293 0 -313 -332z" />
<glyph unicode="f" horiz-adv-x="585" d="M102 881v98h103v43q0 180 55 268q88 140 285 140v-99q-141 0 -201 -92q-45 -70 -45 -217v-43h213v-98h-213v-881h-94v881h-103z" />
<glyph unicode="g" horiz-adv-x="999" d="M92 -119q0 37 14 86l95 -30q-10 -31 -11 -56q0 -86 96.5 -130t194.5 -44q123 0 235.5 73t112.5 191q0 59 -45 92t-106 33q-55 0 -168 -25.5t-170 -25.5q-166 0 -166 135q0 111 119 199q-152 78 -152 291q0 327 342 327h2q170 0 250 -75q80 20 80 104h98 q0 -63 -31.5 -113.5t-88.5 -68.5q36 -72 36 -169v-5q0 -326 -344 -326q-63 0 -114 8q-104 -61 -105 -159q0 -35 16.5 -46.5t53.5 -11.5q59 0 172 29t170 29q102 0 176 -60t74 -160q0 -160 -141.5 -259t-305.5 -99q-145 0 -267 66.5t-122 199.5zM240 670q0 -238 245.5 -238 t245.5 238q0 233 -245.5 233t-245.5 -233z" />
<glyph unicode="h" horiz-adv-x="1030" d="M143 0v1430h99v-560q100 121 276 121q389 0 389 -442v-549h-98v549q0 168 -64.5 256t-226.5 88q-104 0 -190 -63.5t-86 -165.5v-664h-99z" />
<glyph unicode="i" horiz-adv-x="413" d="M133 1355.5q0 30.5 21.5 52.5t52.5 22t52.5 -22t21.5 -52.5t-21.5 -52t-52.5 -21.5t-52.5 21.5t-21.5 52zM158 0v979h98v-979h-98z" />
<glyph unicode="j" horiz-adv-x="471" d="M-41 -352q137 0 191.5 83t54.5 226v1022h98v-1022q0 -408 -344 -408v99zM180 1355.5q0 30.5 21.5 52.5t52.5 22q29 0 51.5 -22t22.5 -52.5t-22.5 -52t-51.5 -21.5q-31 0 -52.5 21.5t-21.5 52z" />
<glyph unicode="k" horiz-adv-x="899" d="M143 0v1430h99v-900l417 449h129l-417 -449l508 -530h-138l-499 524v-524h-99z" />
<glyph unicode="l" horiz-adv-x="411" d="M143 229v1201h99v-1201q0 -63 20.5 -97t77.5 -34v-98q-100 0 -148.5 62.5t-48.5 166.5z" />
<glyph unicode="m" horiz-adv-x="1576" d="M143 0v979h99v-105q41 55 109.5 86t140.5 31q217 0 309 -178q92 178 295 178q358 0 358 -442v-549h-98v549q0 160 -55.5 252t-204.5 92q-252 0 -252 -344v-549h-99v549q0 160 -55 252t-205 92q-92 0 -167.5 -61.5t-75.5 -151.5v-680h-99z" />
<glyph unicode="n" horiz-adv-x="1030" d="M143 0v979h99v-107q100 119 276 119q389 0 389 -442v-549h-98v549q0 168 -64.5 256t-226.5 88q-121 0 -198.5 -69.5t-77.5 -172.5v-651h-99z" />
<glyph unicode="o" d="M92 485q0 506 410 506q407 0 407 -506q0 -503 -405 -503h-2q-410 0 -410 503zM193 485q0 -188 65.5 -296.5t241.5 -108.5q92 0 156.5 31.5t96 91t45 127t13.5 155.5q0 90 -12.5 158t-45 127t-96 91t-155.5 32q-178 0 -243.5 -108.5t-65.5 -299.5z" />
<glyph unicode="p" horiz-adv-x="999" d="M143 -451v1430h99v-105q98 125 276 125q389 0 389 -505.5t-389 -505.5q-178 0 -276 114v-553h-99zM242 340q0 -113 79.5 -182.5t196.5 -69.5q90 0 150.5 33t89 94t40 127t11.5 152q0 68 -6 122t-24.5 109t-49.5 92t-85 60.5t-126 23.5q-115 0 -195.5 -69.5t-80.5 -184.5 v-307z" />
<glyph unicode="q" horiz-adv-x="1005" d="M92 493.5q0 505.5 391 505.5q166 0 275 -112l30 108l95 -30l-27 -82v-1334h-98v551q-103 -112 -272 -112h-3q-391 0 -391 505.5zM190 494q0 -86 11.5 -152t41 -127t90 -94t150.5 -33q115 0 195 69.5t80 182.5v307q0 113 -80 183.5t-195 70.5q-90 0 -150.5 -33.5t-90 -95 t-41 -127t-11.5 -151.5z" />
<glyph unicode="r" horiz-adv-x="765" d="M143 0v979h99v-115q92 127 276 127q105 0 187 -37l-50 -92q-72 31 -137 31q-109 0 -192.5 -70.5t-83.5 -171.5v-651h-99z" />
<glyph unicode="s" horiz-adv-x="915" d="M82 258l96 16q37 -194 294 -194h3q102 0 181 50t79 144q0 80 -63.5 124t-154.5 63.5t-181 43t-153.5 81t-63.5 155.5q0 127 96 189.5t229 62.5q256 0 353 -196l-88 -43q-39 80 -103.5 110.5t-161.5 30.5q-55 0 -103 -11.5t-86 -48t-38 -94.5q0 -68 63.5 -105.5t153.5 -56 t181.5 -44t155 -90.5t63.5 -171q0 -137 -108 -214.5t-251 -77.5q-152 0 -259 67.5t-134 208.5z" />
<glyph unicode="t" horiz-adv-x="555" d="M61 901v78h142v303h98v-303h162v-78h-162v-672q0 -82 26.5 -106.5t108.5 -24.5v-98h-37q-100 0 -148 62.5t-48 166.5v672h-142z" />
<glyph unicode="u" horiz-adv-x="1019" d="M123 430v549h98v-549q0 -170 64.5 -258t228.5 -88q96 0 185 64.5t89 158.5v672h99v-979h-99v96q-105 -108 -271 -108h-3q-391 0 -391 442z" />
<glyph unicode="v" horiz-adv-x="917" d="M41 979h104l314 -838l313 838h105l-367 -979h-104z" />
<glyph unicode="w" horiz-adv-x="1497" d="M41 979h102l258 -823l293 823h103l295 -823l260 823h104l-309 -979h-105l-297 829l-294 -829h-105z" />
<glyph unicode="x" horiz-adv-x="892" d="M41 0l346 506l-330 473h123l266 -387l265 387h120l-325 -473l346 -506h-121l-285 418l-286 -418h-119z" />
<glyph unicode="y" horiz-adv-x="917" d="M41 979h104l314 -838l311 838h107l-459 -1229q-77 -201 -262 -201h-4h-39v99h41q121 0 172 137l80 215z" />
<glyph unicode="z" horiz-adv-x="913" d="M82 0v106l614 775h-565v98h690v-100l-620 -781h620v-98h-739z" />
<glyph unicode="{" horiz-adv-x="684" d="M102 676v80q102 -2 147.5 57t45.5 164q0 39 -15.5 112.5t-15.5 110.5q0 178 71 266t247 88v-84q-131 0 -175.5 -73.5t-44.5 -212.5q0 -35 16.5 -102.5t16.5 -102.5q0 -94 -39 -169t-123 -95q82 -20 122 -95t40 -167q0 -37 -16.5 -108t-16.5 -105q0 -281 220 -281v-84 q-168 0 -243 87t-75 255q0 41 15.5 119t15.5 119q0 221 -193 221z" />
<glyph unicode="|" horiz-adv-x="493" d="M195 -156v1741h104v-1741h-104z" />
<glyph unicode="}" horiz-adv-x="684" d="M102 -41q219 0 220 281q0 35 -17.5 105.5t-17.5 107.5q0 92 40 166.5t122 95.5q-82 20 -121 95t-39 169q0 35 15 102.5t15 102.5q0 139 -44 212.5t-173 73.5v84q174 0 245 -88t71 -266q0 -37 -14.5 -110.5t-14.5 -112.5q0 -104 45 -163.5t148 -57.5v-80q-193 0 -193 -221 q0 -41 15.5 -119t15.5 -119q0 -168 -75 -255t-243 -87v84z" />
<glyph unicode="~" horiz-adv-x="952" d="M102 602q94 115 207 115q70 0 172.5 -65.5t161.5 -65.5q70 0 139 82l68 -64q-106 -115 -211 -115q-70 0 -171 66t-163 66q-76 0 -133 -80z" />
<glyph unicode="&#xa0;" horiz-adv-x="1021" d="M113 877v102h348v451h100v-451h348v-102h-348v-877h-100v877h-348z" />
<glyph unicode="&#xa1;" horiz-adv-x="555" d="M92 1354q0 76 54.5 130t130 54t131 -54t55.5 -130t-55.5 -131.5t-131 -55.5t-130 55.5t-54.5 131.5zM172 1354q0 -43 30.5 -75t73.5 -32q45 0 76 32t31 75t-30.5 74.5t-76.5 31.5q-43 0 -73.5 -31.5t-30.5 -74.5z" />
<glyph unicode="&#xa2;" horiz-adv-x="946" d="M92 489q0 219 110.5 362.5t323.5 145.5l33 158l78 -16l-31 -146q131 -20 248 -147l-72 -66q-94 106 -196 121l-172 -809q49 -16 114 -16q82 0 139.5 29.5t114.5 95.5l72 -66q-74 -82 -146.5 -116.5t-179.5 -34.5q-76 0 -133 16l-39 -176l-75 16l38 191q-117 61 -172 186 t-55 272zM197 489q0 -258 145 -360l164 776q-166 -10 -237.5 -125.5t-71.5 -290.5z" />
<glyph unicode="&#xa3;" horiz-adv-x="1028" d="M92 668l21 98h108q-33 168 -33 256q0 180 97.5 297t275.5 117q125 0 209 -41t166 -135l-76 -66q-68 78 -133 109.5t-166 31.5q-135 0 -203.5 -87t-68.5 -226q0 -88 37 -256h260l-21 -98h-221q29 -135 29 -238q0 -154 -68 -330h613v-100h-730v84q84 186 84 346 q0 92 -30 238h-150z" />
<glyph unicode="&#xa4;" horiz-adv-x="1028" d="M133 557q0 190 121 291q-78 78 -78 211q0 156 94.5 258t249.5 102q209 0 359 -276l-88 -49q-123 225 -271 225q-113 0 -178.5 -74t-65.5 -186q0 -47 14.5 -82t34 -56.5t57.5 -40t65.5 -27.5t78.5 -22q172 -43 270.5 -129.5t98.5 -246.5q0 -188 -121 -293q80 -78 80 -209 q0 -156 -95 -259.5t-249 -103.5q-211 0 -360 279l88 47q125 -223 272 -223q111 0 177.5 73.5t66.5 186.5q0 57 -18.5 97t-59.5 64.5t-75 37t-99 28.5q-172 43 -270.5 130t-98.5 247zM233 557q0 -121 79 -183.5t214 -94.5q96 -25 160 -56q109 70 109 232q0 121 -79 183 t-214 95q-106 27 -160 55q-109 -72 -109 -231z" />
<glyph unicode="&#xa5;" horiz-adv-x="868" d="M133 692q0 125 88 213t213 88t213 -88t88 -213t-88 -213t-213 -88t-213 88t-88 213z" />
<glyph unicode="&#xa6;" horiz-adv-x="1140" d="M113 1034q0 164 115.5 280t279.5 116h459v-1739h-103v1628h-252v-1628h-104v946q-164 0 -279.5 116.5t-115.5 280.5z" />
<glyph unicode="&#xa7;" horiz-adv-x="1007" d="M45 885v92h88v45q0 186 82 297t262 111q113 0 194 -81t81 -194q0 -119 -88 -201q145 -51 198 -173t53 -300q0 -217 -94 -348t-305 -137v98q117 2 185.5 59.5t91 137.5t22.5 196q0 184 -64.5 287t-236.5 111v88q63 10 101 64.5t38 117.5q0 72 -52 124t-124 52 q-137 0 -191.5 -82t-54.5 -227v-1022h-98v885h-88z" />
<glyph unicode="&#xa8;" horiz-adv-x="1617" d="M92 713q0 297 210 507t507 210t507 -210t210 -507t-210 -507t-507 -210t-507 210t-210 507zM180 713q0 -260 184.5 -444.5t444.5 -184.5t444.5 184.5t184.5 444.5t-184.5 444t-444.5 184t-444.5 -184t-184.5 -444zM561 328v772h275q117 0 186.5 -56.5t69.5 -169.5 q0 -82 -50.5 -145t-130.5 -63q25 -25 33 -39l180 -299h-116l-148 247q-16 27 -26.5 41.5t-31 27.5t-44.5 13h-99v-329h-98zM659 743h177q157 0 157 131q0 127 -157 127h-177v-258z" />
<glyph unicode="&#xa9;" horiz-adv-x="1617" d="M92 713q0 297 210 507t507 210t507 -210t210 -507t-210 -507t-507 -210t-507 210t-210 507zM180 713q0 -260 184.5 -444.5t444.5 -184.5t444.5 184.5t184.5 444.5t-184.5 444t-444.5 184t-444.5 -184t-184.5 -444zM510 713q0 170 77 284.5t238 114.5q135 0 240 -123 l-76 -63q-76 88 -164 88q-213 0 -213 -301t213 -301q88 0 164 88l76 -64q-104 -123 -240 -123q-162 0 -238.5 115t-76.5 285z" />
<glyph unicode="&#xaa;" horiz-adv-x="989" d="M86 1378v52h330v-52h-140v-377h-51v377h-139zM465 1001v429h51l148 -369l145 369h53v-429h-51v312l-121 -312h-55l-121 310v-310h-49z" />
<glyph unicode="&#xab;" horiz-adv-x="577" d="M133 1116l174 299h137l-194 -299h-117z" />
<glyph unicode="&#xac;" d="M211 1198q0 37 25.5 63.5t62.5 26.5t63.5 -26.5t26.5 -63.5q0 -35 -26.5 -61.5t-63.5 -26.5t-62.5 26.5t-25.5 61.5zM614 1198q0 37 27 63.5t64 26.5q35 0 61.5 -26.5t26.5 -63.5q0 -35 -27 -61.5t-61 -26.5q-37 0 -64 26.5t-27 61.5z" />
<glyph unicode="&#xad;" horiz-adv-x="1046" d="M113 279v100h319l98 266h-417v100h454l76 211l74 -26l-66 -185h283v-100h-320l-98 -266h418v-100h-453l-78 -211l-73 26l67 185h-284z" />
<glyph unicode="&#xae;" horiz-adv-x="1849" d="M31 0l676 1430h1050v-103h-735v-530h637v-105h-637v-590h735v-102h-837h-2v436h-566l-207 -436h-114zM399 535h519v792h-146z" />
<glyph unicode="&#xaf;" horiz-adv-x="1302" d="M92 715q0 145 29 269t90 231.5t174 170t266 62.5q174 0 299 -82l35 64h113l-72 -127q184 -193 184 -588q0 -145 -28.5 -269t-90 -232t-174 -170t-266.5 -62q-178 0 -309 90l-39 -72h-113l78 137q-176 193 -176 578zM197 715q0 -319 125 -482l577 1041q-98 70 -248 69 q-131 0 -224 -54t-141 -149.5t-68.5 -198.5t-20.5 -226zM393 164q104 -78 258 -78q131 0 225.5 54.5t142.5 149.5t68.5 198.5t20.5 226.5q0 330 -135 491z" />
<glyph unicode="&#xb0;" horiz-adv-x="1558" d="M92 545q0 115 80 187.5t197 72.5q164 0 411 -207q244 207 412 207q123 0 198.5 -82t75.5 -207q0 -115 -78.5 -187.5t-195.5 -72.5q-166 0 -412 209q-250 -209 -411 -209q-125 0 -201 82t-76 207zM193 545q0 -82 47 -134.5t129 -52.5q126 0 333 172q-209 174 -333 175 q-76 0 -126 -43.5t-50 -116.5zM856 530q207 -172 334 -172q76 0 126 42t50 116q0 84 -47 136.5t-129 52.5q-125 0 -334 -175z" />
<glyph unicode="&#xb1;" horiz-adv-x="1046" d="M113 0v100h821v-100h-821zM113 508v104h358v359h104v-359h359v-104h-359v-358h-104v358h-358z" />
<glyph unicode="&#xb2;" horiz-adv-x="962" d="M113 0v104h737v-104h-737zM113 473v111l737 342v-111l-619 -287l619 -286v-111z" />
<glyph unicode="&#xb3;" horiz-adv-x="962" d="M113 0v104h737v-104h-737zM113 131v111l618 286l-618 287v111l737 -342v-111z" />
<glyph unicode="&#xb4;" horiz-adv-x="1177" d="M72 1430h114l404 -826l401 826h115l-322 -664h189l-21 -98h-217l-86 -181h324l-21 -98h-311v-389h-104v389h-332l20 98h305l-86 181h-239l20 98h170z" />
<glyph unicode="&#xb5;" horiz-adv-x="1030" d="M133 -401v1380h98v-549q0 -166 65.5 -255t227.5 -89q98 0 186.5 63.5t88.5 157.5v672h98v-979h-98v96q-109 -109 -275 -108q-102 0 -167.5 24.5t-125.5 96.5v-510h-98z" />
<glyph unicode="&#xb6;" horiz-adv-x="997" d="M92 422q0 176 103.5 302t285.5 126q80 0 157 -36t132 -97q-6 78 -23.5 166t-52.5 197.5t-98.5 180t-144.5 70.5q-115 0 -222 -131l-82 64q137 172 304 172q115 0 198.5 -83t127.5 -198t69.5 -269.5t32 -259t6.5 -206.5q0 -170 -114 -298t-282 -128q-174 0 -285.5 121 t-111.5 307zM193 422q0 -141 82.5 -234.5t213.5 -93.5q127 0 211 99.5t84 228.5t-88 227.5t-215 98.5q-135 0 -211.5 -96.5t-76.5 -229.5z" />
<glyph unicode="&#xb7;" horiz-adv-x="1036" d="M113 -352l532 841l-532 842v99h811v-101h-691l531 -840l-531 -839h691v-101h-811v99z" />
<glyph unicode="&#xb8;" horiz-adv-x="1206" d="M154 -403v1943h899v-1943h-99v1845h-702v-1845h-98z" />
<glyph unicode="&#xb9;" horiz-adv-x="1085" d="M133 0v979h725v-750q0 -82 26.5 -106.5t108.5 -24.5v-98h-37q-100 0 -148 62.5t-48 166.5v652h-529v-881h-98z" />
<glyph unicode="&#xba;" horiz-adv-x="638" d="M72 -303q14 0 43.5 -1t40 0t33 3t30.5 7t21.5 14.5t17.5 23.5t8 34.5t4 49.5v1374q0 102 48.5 165t148.5 63h100v-99q-14 0 -43.5 1t-41 0t-33 -3t-29.5 -7t-21.5 -13.5t-17.5 -22.5t-8 -34.5t-4 -49.5v-1374q0 -104 -48.5 -166.5t-148.5 -62.5h-100v98z" />
<glyph unicode="&#xbb;" horiz-adv-x="806" d="M90 864q0 113 81 177.5t194 64.5h112q86 0 117 31v69q0 59 -53.5 99.5t-116.5 40.5q-162 0 -201 -134l-98 29q72 207 303 207q102 0 185 -66.5t83 -169.5v-483l29 -72l-92 -32l-29 65q-96 -76 -227 -76q-123 0 -205 64.5t-82 185.5zM195 864q0 -72 52 -109.5t130 -37.5 q123 0 217 96v209q-33 -16 -96 -16h-133q-74 0 -122 -37t-48 -105zM268 412v100h271v-100h-271z" />
<glyph unicode="&#xbc;" horiz-adv-x="862" d="M94 1032q0 416 338 416q336 0 336 -416q0 -418 -336 -418q-338 0 -338 418zM197 1032q0 -70 9 -121t33.5 -97t72.5 -70.5t120 -24.5q135 0 184.5 83t49.5 230q0 145 -49.5 229.5t-184.5 84.5q-137 0 -186 -84t-49 -230zM297 412v100h270v-100h-270z" />
<glyph unicode="&#xbd;" horiz-adv-x="1220" d="M92 713q0 135 25.5 254.5t82 227.5t162 170t249 62t249 -62t161.5 -170t81.5 -227.5t25.5 -254.5q0 -430 -227 -619h184l19 -94h-356v88q160 115 220 261.5t60 363.5q0 115 -18.5 214t-62.5 193t-130 149.5t-207 55.5t-207 -55.5t-130 -149.5t-62 -193.5t-18 -213.5 q0 -217 60 -363.5t220 -261.5v-88h-354l16 94h184q-227 190 -227 619z" />
<glyph unicode="&#xbe;" horiz-adv-x="1593" d="M80 276q0 133 96 210t234 77h143q115 0 162 49v95q0 82 -72 134t-156 52q-94 0 -167.5 -40t-98.5 -122l-94 29q86 231 365 231q94 0 178 -47t123 -127q102 174 342 174q188 0 281 -124.5t93 -321.5l-2 -82h-692q4 -383 340 -383q168 0 252 108l78 -61 q-113 -145 -330 -145q-250 0 -356 163q-160 -166 -373 -165q-147 0 -246.5 76.5t-99.5 219.5zM180 276q0 -98 72 -148t174 -50q166 0 328 162q-39 106 -39 260q-55 -31 -137 -31h-168q-96 0 -163 -50t-67 -143zM815 561h594q-2 150 -66.5 241t-207.5 91q-152 0 -231 -89 t-89 -243z" />
<glyph unicode="&#xbf;" d="M92 485q0 506 410 506q131 0 217 -51l26 41h101l-58 -96q121 -124 121 -400q0 -504 -407 -503q-135 0 -223 53l-23 -35h-100l53 90q-117 127 -117 395zM190 485q0 -207 74 -305l404 674q-66 39 -166 39q-94 0 -157.5 -32t-96.5 -91t-45.5 -127t-12.5 -158zM330 121 q66 -41 170 -41q92 0 156.5 31.5t96 91t45 127t13.5 155.5q0 215 -76 312z" />
<glyph unicode="&#xc0;" horiz-adv-x="958" d="M63 356q0 94 36 153.5t87.5 91.5t104.5 61.5t92 89t43 149.5l8 170h68q14 -113 14 -170q0 -90 -25.5 -156.5t-64.5 -98.5t-84 -62.5t-84 -53t-64.5 -67.5t-25.5 -107q0 -127 86 -199.5t213 -72.5q125 0 219 71.5t92 192.5h99q0 -164 -121 -264t-289 -100q-170 0 -287 102 t-117 270zM385 1364q0 33 24.5 57.5t57.5 24.5t56.5 -24.5t23.5 -57.5t-23.5 -57.5t-56.5 -24.5t-57.5 24.5t-24.5 57.5z" />
<glyph unicode="&#xc1;" horiz-adv-x="573" d="M205 1366q0 35 24.5 58.5t57 23.5t57.5 -23.5t25 -58.5t-25 -58.5t-57.5 -23.5t-57 23.5t-24.5 58.5zM231 0v694l21 383h67l23 -383v-694h-111z" />
<glyph unicode="&#xc2;" horiz-adv-x="1026" d="M92 487v88h821v-364h-88v276h-733z" />
<glyph unicode="&#xc3;" horiz-adv-x="1234" d="M113 979h108l326 -819l342 1259h274v-100h-196l-359 -1319h-106z" />
<glyph unicode="&#xc4;" horiz-adv-x="739" d="M31 -393l207 1175h-129v99h147l27 149q29 172 104 264q111 136 301 136v-99q-143 0 -225 -100q-59 -72 -84 -217l-23 -133h162v-99h-180l-211 -1192z" />
<glyph unicode="&#xc5;" horiz-adv-x="1019" d="M92 414q53 51 99.5 72.5t111.5 21.5q74 0 212 -45t210 -45q45 0 70.5 13t64.5 48l68 -65q-100 -94 -213 -95q-74 0 -211 45.5t-209 45.5q-45 0 -71.5 -13.5t-63.5 -48.5zM92 700q53 51 99.5 73t111.5 22q74 0 212 -45t210 -45q45 0 70.5 13t64.5 48l68 -64 q-100 -94 -213 -94q-74 0 -211 45t-209 45q-45 0 -71.5 -13t-63.5 -48z" />
<glyph unicode="&#xc6;" horiz-adv-x="1165" d="M31 0l553 1423l551 -1423h-1104zM172 94h821l-409 1057z" />
<glyph unicode="&#xc7;" horiz-adv-x="964" d="M92 479v99l408 397v-137l-316 -310l316 -309v-137zM444 479v99l408 397v-137l-317 -310l317 -309v-137z" />
<glyph unicode="&#xc8;" horiz-adv-x="964" d="M113 82v137l317 309l-317 310v137l407 -397v-99zM465 82v137l315 309l-315 310v137l407 -397v-99z" />
<glyph unicode="&#xc9;" horiz-adv-x="1288" d="M154 72q0 37 26.5 62.5t61.5 25.5q37 0 63.5 -25.5t26.5 -62.5t-26.5 -62.5t-63.5 -25.5q-35 0 -61.5 25.5t-26.5 62.5zM555 72q0 37 26.5 62.5t63.5 25.5q35 0 61.5 -25.5t26.5 -62.5t-26.5 -62.5t-61.5 -25.5q-37 0 -63.5 25.5t-26.5 62.5zM958 72q0 37 26 62.5 t62.5 25.5t62.5 -25.5t26 -62.5t-26 -62.5t-62.5 -25.5t-62.5 25.5t-26 62.5z" />
<glyph unicode="&#xca;" horiz-adv-x="276" />
<glyph unicode="&#xcb;" horiz-adv-x="1263" d="M20 0l547 1430h129l547 -1430h-110l-168 436h-666l-168 -436h-111zM336 535h592l-297 776zM422 1886h137l174 -299h-117z" />
<glyph unicode="&#xcc;" horiz-adv-x="1263" d="M20 0l547 1430h129l547 -1430h-110l-168 436h-666l-168 -436h-111zM319 1661q76 100 168 100q59 0 156.5 -44t140.5 -44q45 0 93 64l77 -62q-78 -100 -170 -100q-59 0 -156.5 44t-140.5 44q-20 0 -39.5 -11.5t-25.5 -18.5t-27 -34zM336 535h592l-297 776z" />
<glyph unicode="&#xcd;" horiz-adv-x="1302" d="M92 714.5q0 145.5 29 269.5t90 231.5t174 170t266.5 62.5t266 -62.5t174 -170t90 -231.5t28.5 -269.5t-28.5 -269t-90 -231.5t-174 -170t-266 -62t-266.5 62t-174 170t-90 231.5t-29 269zM197 715q0 -123 20.5 -226.5t68.5 -198.5t141 -149.5t224 -54.5t225.5 54.5 t142.5 149.5t68.5 198.5t20.5 226.5t-20.5 226t-68.5 198.5t-142.5 149.5t-225.5 54t-224 -54t-141 -149.5t-68.5 -198.5t-20.5 -226zM348 1661q76 100 168 100q59 0 156.5 -44t140.5 -44q45 0 92 64l78 -62q-80 -100 -170 -100q-59 0 -156.5 44t-140.5 44 q-20 0 -39.5 -11.5t-26 -18.5t-26.5 -34z" />
<glyph unicode="&#xce;" horiz-adv-x="2060" d="M92 714.5q0 145.5 29 269.5t90 231.5t174 170t266 62.5q143 0 266 -66.5t191 -187.5v236h840v-103h-738v-530h639v-105h-639v-590h738v-102h-840v238q-70 -123 -191.5 -189.5t-265.5 -66.5q-154 0 -266.5 62t-173.5 170t-90 231.5t-29 269zM197 715q0 -123 20.5 -226.5 t68.5 -198.5t141 -149.5t224 -54.5t225.5 54.5t142.5 149.5t68.5 198.5t20.5 226.5t-20.5 226t-68.5 198.5t-142.5 149.5t-225.5 54t-224 -54t-141 -149.5t-68.5 -198.5t-20.5 -226z" />
<glyph unicode="&#xcf;" horiz-adv-x="1691" d="M92 485q0 506 410 506q121 0 217 -54t143 -161q49 106 145.5 160.5t219.5 54.5q190 0 282 -125.5t90 -320.5v-82h-688q2 -184 79 -283.5t255 -99.5t266 110l78 -61q-115 -147 -344 -147q-127 0 -230.5 53t-152.5 160q-47 -104 -143 -158.5t-217 -54.5q-410 0 -410 503z M190 485q0 -188 67 -296.5t243 -108.5q92 0 156.5 31.5t96 91t45 127t13.5 155.5q0 90 -12.5 158t-45 127t-96 91t-155.5 32q-94 0 -157.5 -32t-96.5 -91t-45.5 -127t-12.5 -158zM913 561h588q-8 332 -274 332q-293 0 -314 -332z" />
<glyph unicode="&#xd0;" horiz-adv-x="1032" d="M113 508v104h807v-104h-807z" />
<glyph unicode="&#xd1;" horiz-adv-x="1642" d="M113 508v104h1417v-104h-1417z" />
<glyph unicode="&#xd2;" horiz-adv-x="727" d="M143 1192q0 14 3.5 30.5t6.5 36t5 29.5l155 252h9l-15 -340q-2 -33 -25.5 -57.5t-56.5 -24.5q-31 0 -56.5 21.5t-25.5 52.5zM406 1192q0 29 14 96l153 252h11l-15 -340q-2 -33 -25.5 -57.5t-56 -24.5t-57 21.5t-24.5 52.5z" />
<glyph unicode="&#xd3;" horiz-adv-x="727" d="M143 1118l15 340q2 35 25.5 58.5t56 23.5t57.5 -21.5t25 -52.5q0 -16 -7.5 -53t-7.5 -43l-155 -252h-9zM406 1118l14 340q0 35 23.5 58.5t56 23.5t58.5 -21.5t26 -52.5q0 -14 -17 -96l-153 -252h-8z" />
<glyph unicode="&#xd4;" horiz-adv-x="464" d="M143 1192q0 14 3.5 30.5t6.5 36t5 29.5l155 252h9l-15 -340q-2 -33 -25.5 -57.5t-56 -24.5t-57.5 21.5t-25 52.5z" />
<glyph unicode="&#xd5;" horiz-adv-x="464" d="M143 1118l15 340q2 35 25.5 58.5t56 23.5t57.5 -21.5t25 -52.5q0 -16 -7.5 -53t-7.5 -43l-155 -252h-9z" />
<glyph unicode="&#xd6;" horiz-adv-x="1032" d="M113 508v104h807v-104h-807zM424 244q0 35 25.5 61.5t62.5 26.5t62.5 -26.5t25.5 -61.5q0 -37 -25.5 -63.5t-62.5 -26.5t-62.5 26.5t-25.5 63.5zM424 879q0 37 25.5 63.5t62.5 26.5t62.5 -26.5t25.5 -63.5q0 -35 -25.5 -61.5t-62.5 -26.5t-62.5 26.5t-25.5 61.5z" />
<glyph unicode="&#xd7;" horiz-adv-x="1081" d="M113 707l428 696l428 -696l-428 -699zM217 707l324 -529l323 529l-323 526z" />
<glyph unicode="&#xd8;" horiz-adv-x="927" d="M41 979h113l313 -838l311 838h109l-459 -1229q-78 -203 -268 -201h-39v99h41q121 0 172 137l78 223zM176 1198q0 37 26.5 63.5t61.5 26.5q37 0 63.5 -26.5t26.5 -63.5q0 -35 -26.5 -61.5t-63.5 -26.5q-35 0 -61.5 26.5t-26.5 61.5zM580 1198q0 37 26.5 63.5t63.5 26.5 q35 0 61.5 -26.5t26.5 -63.5q0 -35 -26.5 -61.5t-61.5 -26.5q-37 0 -63.5 26.5t-26.5 61.5z" />
<glyph unicode="&#xd9;" horiz-adv-x="1136" d="M51 1430h115l403 -838l402 838h114l-464 -959v-471h-105v475zM270 1675q0 37 27 63.5t63.5 26.5t62.5 -26.5t26 -63.5q0 -35 -26 -61.5t-62.5 -26.5t-63.5 26.5t-27 61.5zM696 1675q0 37 26 63.5t62.5 26.5t62 -26.5t25.5 -63.5q0 -35 -25.5 -61.5t-62 -26.5t-62.5 26.5 t-26 61.5z" />
<glyph unicode="&#xda;" horiz-adv-x="280" d="M-215 0l618 1430h93l-619 -1430h-92z" />
<glyph unicode="&#xdb;" horiz-adv-x="1198" d="M92 487l21 99h116q-6 82 -2 180h-135l21 98h118q16 203 107 344q158 240 448 240q201 0 344 -133l-53 -92q-66 66 -132 93t-159 27q-205 0 -318.5 -135t-131.5 -344h524l-22 -98h-508v-51q0 -43 4 -129h526l-22 -99h-492q33 -180 147.5 -290.5t292.5 -110.5 q92 0 159 27.5t132 93.5l53 -92q-143 -133 -344 -133q-221 0 -365.5 140t-178.5 365h-150z" />
<glyph unicode="&#xdc;" horiz-adv-x="612" d="M92 479v99l408 397v-137l-316 -310l316 -309v-137z" />
<glyph unicode="&#xdd;" horiz-adv-x="612" d="M113 82v137l317 309l-317 310v137l407 -397v-99z" />
<glyph unicode="&#xde;" horiz-adv-x="944" d="M92 881v98h98v43q0 174 60 268q88 139 285 140v-99q-139 0 -201 -94q-45 -70 -45 -215v-43h497v-979h-98v881h-399v-881h-99v881h-98zM664 1355.5q0 30.5 21.5 52.5t52 22t52 -22t21.5 -52.5t-21.5 -52t-52 -21.5t-52 21.5t-21.5 52z" />
<glyph unicode="&#xdf;" d="M92 881v98h96q0 72 2.5 110.5t15.5 98t42 102.5q90 139 284 140h259v-1201q0 -63 19 -97t77 -34l2 -98q-197 0 -197 229v1102h-160q-137 0 -200 -94q-45 -68 -45 -258h215v-98h-215v-881h-99v881h-96z" />
<glyph unicode="&#xe0;" horiz-adv-x="1021" d="M113 41v102h348v734h-348v102h348v451h100v-451h348v-102h-348v-734h348v-102h-348v-451h-100v451h-348z" />
<glyph unicode="&#xe1;" horiz-adv-x="444" d="M133 543q0 37 25.5 62.5t62.5 25.5t63.5 -25.5t26.5 -62.5t-26.5 -63.5t-63.5 -26.5t-62.5 26.5t-25.5 63.5z" />
<glyph unicode="&#xe2;" horiz-adv-x="464" d="M143 -242l15 340q2 35 25.5 58.5t56.5 23.5q35 0 60.5 -24.5t21.5 -57.5l-15 -88l-155 -252h-9z" />
<glyph unicode="&#xe3;" horiz-adv-x="727" d="M143 -242l15 340q2 35 25.5 58.5t56.5 23.5q35 0 60.5 -24.5t21.5 -57.5l-15 -88l-155 -252h-9zM406 -242l14 340q0 35 23.5 58.5t56.5 23.5q35 0 61.5 -24.5t20.5 -57.5l-15 -88l-153 -252h-8z" />
<glyph unicode="&#xe4;" horiz-adv-x="2052" d="M92 1046.5q0 106.5 24.5 191.5t93.5 148.5t177 63.5q158 0 226.5 -118t68.5 -285.5t-68.5 -285.5t-226.5 -118q-109 0 -177.5 63.5t-93 148.5t-24.5 191.5zM180 1046.5q0 -313.5 207 -313.5t207 313.5t-207 313.5t-207 -313.5zM412 0l620 1430h107l-619 -1430h-108z M870 381q0 78 14.5 145.5t46.5 128t92 95t142 34.5q170 0 250 -157q80 158 250 157q158 0 226.5 -116.5t68.5 -286.5q0 -168 -68.5 -284.5t-226.5 -116.5q-170 0 -250 157q-80 -158 -250 -157q-82 0 -142 34.5t-92 95t-46.5 127t-14.5 144.5zM958 381q0 -313 207 -313 q201 0 205 313v33q2 113 -48 197.5t-157 84.5q-207 0 -207 -315zM1460 381q0 -313 205 -313q207 0 207 313q0 315 -207 315q-205 0 -205 -315z" />
<glyph unicode="&#xe5;" horiz-adv-x="1263" d="M20 0l547 1430h129l547 -1430h-110l-168 436h-666l-168 -436h-111zM336 535h592l-297 776zM369 1587l174 299h178l174 -299h-117l-147 250l-146 -250h-116z" />
<glyph unicode="&#xe6;" horiz-adv-x="1155" d="M154 0v1430h888v-103h-784v-530h686v-105h-686v-590h784v-102h-888zM369 1587l174 299h178l174 -299h-117l-147 250l-146 -250h-116z" />
<glyph unicode="&#xe7;" horiz-adv-x="1263" d="M20 0l547 1430h129l547 -1430h-110l-168 436h-666l-168 -436h-111zM336 535h592l-297 776zM524 1587l174 299h138l-195 -299h-117z" />
<glyph unicode="&#xe8;" horiz-adv-x="1155" d="M154 0v1430h888v-103h-784v-534h686v-101h-686v-590h784v-102h-888zM328 1675q0 37 26.5 63.5t63.5 26.5q35 0 61.5 -26.5t26.5 -63.5q0 -35 -26.5 -61.5t-61.5 -26.5q-37 0 -63.5 26.5t-26.5 61.5zM731 1675q0 37 26.5 63.5t63.5 26.5t62.5 -26.5t25.5 -63.5 q0 -35 -25.5 -61.5t-62.5 -26.5t-63.5 26.5t-26.5 61.5z" />
<glyph unicode="&#xe9;" horiz-adv-x="1155" d="M154 0v1430h888v-103h-784v-536h686v-99h-686v-590h784v-102h-888zM401 1886h138l174 -299h-117z" />
<glyph unicode="&#xea;" horiz-adv-x="497" d="M133 1587l174 299h137l-194 -299h-117zM193 0v1430h104v-1430h-104z" />
<glyph unicode="&#xeb;" horiz-adv-x="608" d="M41 1587l174 299h178l174 -299h-116l-148 250l-145 -250h-117zM246 0v1430h104v-1430h-104z" />
<glyph unicode="&#xec;" horiz-adv-x="561" d="M20 1675q0 37 26 63.5t62.5 26.5t63.5 -26.5t27 -63.5t-27 -62.5t-63.5 -25.5t-62.5 25.5t-26 62.5zM229 0v1430h105v-1430h-105zM362 1675q0 37 27 63.5t64 26.5q35 0 61.5 -26.5t26.5 -63.5t-27 -62.5t-61 -25.5q-37 0 -64 25.5t-27 62.5z" />
<glyph unicode="&#xed;" horiz-adv-x="475" d="M31 1886h137l174 -299h-117zM180 0v1430h103v-1430h-103z" />
<glyph unicode="&#xee;" horiz-adv-x="1302" d="M92 714.5q0 145.5 29 269.5t90 231.5t174 170t266.5 62.5t266 -62.5t174 -170t90 -231.5t28.5 -269.5t-28.5 -269t-90 -231.5t-174 -170t-266 -62t-266.5 62t-174 170t-90 231.5t-29 269zM197 715q0 -123 20.5 -226.5t68.5 -198.5t141 -149.5t224 -54.5t225.5 54.5 t142.5 149.5t68.5 198.5t20.5 226.5t-20.5 226t-68.5 198.5t-142.5 149.5t-225.5 54t-224 -54t-141 -149.5t-68.5 -198.5t-20.5 -226zM530 1587l175 299h137l-195 -299h-117z" />
<glyph unicode="&#xef;" horiz-adv-x="1302" d="M92 714.5q0 145.5 29 269.5t90 231.5t174 170t266.5 62.5t266 -62.5t174 -170t90 -231.5t28.5 -269.5t-28.5 -269t-90 -231.5t-174 -170t-266 -62t-266.5 62t-174 170t-90 231.5t-29 269zM197 715q0 -123 20.5 -226.5t68.5 -198.5t141 -149.5t224 -54.5t225.5 54.5 t142.5 149.5t68.5 198.5t20.5 226.5t-20.5 226t-68.5 198.5t-142.5 149.5t-225.5 54t-224 -54t-141 -149.5t-68.5 -198.5t-20.5 -226zM389 1587l174 299h178l172 -299h-116l-146 250l-145 -250h-117z" />
<glyph unicode="&#xf1;" horiz-adv-x="1302" d="M92 714.5q0 145.5 29 269.5t90 231.5t174 170t266.5 62.5t266 -62.5t174 -170t90 -231.5t28.5 -269.5t-28.5 -269t-90 -231.5t-174 -170t-266 -62t-266.5 62t-174 170t-90 231.5t-29 269zM197 715q0 -123 20.5 -226.5t68.5 -198.5t141 -149.5t224 -54.5t225.5 54.5 t142.5 149.5t68.5 198.5t20.5 226.5t-20.5 226t-68.5 198.5t-142.5 149.5t-225.5 54t-224 -54t-141 -149.5t-68.5 -198.5t-20.5 -226zM449 1886h137l174 -299h-117z" />
<glyph unicode="&#xf2;" horiz-adv-x="1298" d="M143 602v828h105v-828q0 -115 16.5 -201t58.5 -161.5t123.5 -114.5t202.5 -39t203 40t124 114.5t58.5 160.5t16.5 201v828h104v-828q0 -621 -506 -620.5t-506 620.5zM512 1587l174 299h137l-194 -299h-117z" />
<glyph unicode="&#xf3;" horiz-adv-x="1298" d="M143 602v828h105v-828q0 -115 16.5 -201t58.5 -161.5t123.5 -114.5t202.5 -39t203 40t124 114.5t58.5 160.5t16.5 201v828h104v-828q0 -621 -506 -620.5t-506 620.5zM393 1587l174 299h178l175 -299h-117l-146 250l-147 -250h-117z" />
<glyph unicode="&#xf4;" horiz-adv-x="1298" d="M143 602v828h105v-828q0 -115 16.5 -201t58.5 -161.5t123.5 -114.5t202.5 -39t203 40t124 114.5t58.5 160.5t16.5 201v828h104v-828q0 -621 -506 -620.5t-506 620.5zM453 1886h137l174 -299h-117z" />
<glyph unicode="&#xf5;" horiz-adv-x="434" d="M168 0v979h98v-979h-98z" />
<glyph unicode="&#xf6;" horiz-adv-x="1019" d="M242 1092l186 299h156l186 -299h-119l-147 249l-146 -249h-116z" />
<glyph unicode="&#xf7;" horiz-adv-x="1013" d="M184 1204q76 100 168 101q61 0 157.5 -44t139.5 -44q16 0 28.5 3t28 17t17.5 17t20 26l76 -61q-76 -100 -168 -101q-61 0 -157.5 44t-139.5 44q-16 0 -28.5 -3t-27.5 -17.5t-17 -17.5t-21 -25z" />
<glyph unicode="&#xf8;" horiz-adv-x="991" d="M195 1212v99h602v-99h-602z" />
<glyph unicode="&#xf9;" horiz-adv-x="997" d="M154 1430h100q37 -70 101.5 -112t142 -42t142.5 42t101 112h103q-41 -111 -135.5 -181.5t-211 -70.5t-209.5 70.5t-134 181.5z" />
<glyph unicode="&#xfa;" horiz-adv-x="1017" d="M420 1198q0 37 25.5 63.5t62.5 26.5t63.5 -26.5t26.5 -63.5q0 -35 -26.5 -61.5t-63.5 -26.5t-62.5 26.5t-25.5 61.5z" />
<glyph unicode="&#xfb;" horiz-adv-x="989" d="M256 1329q0 98 69.5 168t170.5 70q98 0 167.5 -70t69.5 -168t-69.5 -168.5t-167.5 -70.5q-100 0 -170 70.5t-70 168.5zM354 1329q0 -57 41 -98t101 -41q57 0 98 41t41 98t-41 98t-98 41q-59 0 -100.5 -41t-41.5 -98z" />
<glyph unicode="&#xfc;" horiz-adv-x="985" d="M348 -401l168 264l-65 149l81 35l84 -192l-133 -256h-135z" />
<glyph unicode="&#xfd;" horiz-adv-x="890" d="M236 1167l174 299h137l-195 -299h-116zM487 1167l175 299h137l-195 -299h-117z" />
<glyph unicode="&#xfe;" horiz-adv-x="1042" d="M369 0h106l230 -401h-136z" />
<glyph unicode="&#xff;" horiz-adv-x="956" d="M195 1391h137l145 -252l148 252h137l-195 -299h-178z" />
<glyph unicode="&#x152;" horiz-adv-x="944" d="M92 276q0 135 96.5 211t233.5 76h143q119 0 164 49v95q0 82 -72.5 134t-156.5 52q-94 0 -167 -40t-100 -122l-94 29q84 231 365 231q123 0 223 -78.5t100 -199.5v-609l35 -94l-90 -26l-39 98q-129 -102 -295 -102q-150 0 -248 76.5t-98 219.5zM193 276q0 -96 71.5 -147 t173.5 -51q164 0 291 129v293q-55 -31 -139 -31h-168q-96 0 -162.5 -50t-66.5 -143zM256 1329q0 98 69.5 168t170.5 70q98 0 167.5 -70t69.5 -168t-69.5 -168.5t-167.5 -70.5q-100 0 -170 70.5t-70 168.5zM354 1329q0 -57 41 -98t101 -41q57 0 98 41t41 98t-41 98t-98 41 q-59 0 -100.5 -41t-41.5 -98z" />
<glyph unicode="&#x153;" horiz-adv-x="1019" d="M123 430v549h98v-549q0 -166 65.5 -255t227.5 -89q96 0 185 63.5t89 157.5v672h99v-979h-99v96q-106 -109 -274 -108q-391 0 -391 442zM434 1116l174 299h137l-194 -299h-117z" />
<glyph unicode="&#x178;" horiz-adv-x="1019" d="M123 430v549h98v-549q0 -166 65.5 -255t227.5 -89q96 0 185 63.5t89 157.5v672h99v-979h-99v96q-106 -109 -274 -108q-391 0 -391 442zM219 1198q0 37 25.5 63.5t62.5 26.5t63.5 -26.5t26.5 -63.5q0 -35 -26.5 -61.5t-63.5 -26.5t-62.5 26.5t-25.5 61.5zM627 1198 q0 37 26.5 63.5t63.5 26.5q35 0 61.5 -26.5t26.5 -63.5q0 -35 -26.5 -61.5t-61.5 -26.5q-37 0 -63.5 26.5t-26.5 61.5z" />
<glyph unicode="&#x2c6;" horiz-adv-x="944" d="M92 276q0 135 96.5 211t233.5 76h143q119 0 164 49v95q0 82 -72.5 134t-156.5 52q-94 0 -167 -40t-100 -122l-94 29q84 231 365 231q123 0 223 -78.5t100 -199.5v-609l35 -94l-90 -26l-39 98q-129 -102 -295 -102q-150 0 -248 76.5t-98 219.5zM193 276q0 -96 71.5 -147 t173.5 -51q164 0 291 129v293q-55 -31 -139 -31h-168q-96 0 -162.5 -50t-66.5 -143zM295 1415h137l174 -299h-117z" />
<glyph unicode="&#x2dc;" d="M92 485q0 506 410 506q407 0 407 -506q0 -504 -407 -503q-410 0 -410 503zM190 485q0 -188 67 -296.5t243 -108.5q92 0 156.5 31.5t96 91t45 127t13.5 155.5q0 90 -12.5 158t-45 127t-96 91t-155.5 32q-94 0 -157.5 -32t-96.5 -91t-45.5 -127t-12.5 -158zM307 1415h137 l174 -299h-116z" />
<glyph unicode="&#x2000;" horiz-adv-x="943" />
<glyph unicode="&#x2001;" horiz-adv-x="1886" />
<glyph unicode="&#x2002;" horiz-adv-x="943" />
<glyph unicode="&#x2003;" horiz-adv-x="1886" />
<glyph unicode="&#x2004;" horiz-adv-x="628" />
<glyph unicode="&#x2005;" horiz-adv-x="471" />
<glyph unicode="&#x2006;" horiz-adv-x="314" />
<glyph unicode="&#x2007;" horiz-adv-x="314" />
<glyph unicode="&#x2008;" horiz-adv-x="235" />
<glyph unicode="&#x2009;" horiz-adv-x="377" />
<glyph unicode="&#x200a;" horiz-adv-x="104" />
<glyph unicode="&#x2010;" horiz-adv-x="792" d="M133 508v104h526v-104h-526z" />
<glyph unicode="&#x2011;" horiz-adv-x="792" d="M133 508v104h526v-104h-526z" />
<glyph unicode="&#x2012;" horiz-adv-x="792" d="M133 508v104h526v-104h-526z" />
<glyph unicode="&#x2013;" horiz-adv-x="1009" d="M133 0v979h98v-102q100 115 277 114q389 0 389 -442v-549h-98v549q0 168 -64.5 256t-226.5 88q-121 0 -199 -69.5t-78 -172.5v-651h-98zM203 1204q76 100 168 101q61 0 157.5 -44t139.5 -44q23 0 41 10t26 20t27 33l76 -61q-76 -100 -168 -101q-61 0 -157.5 44t-139.5 44 q-16 0 -28.5 -3t-28 -17.5t-17.5 -17.5t-20 -25z" />
<glyph unicode="&#x2014;" d="M92 485q0 506 410 506q407 0 407 -506q0 -504 -407 -503q-410 0 -410 503zM190 485q0 -188 67 -296.5t243 -108.5q92 0 156.5 31.5t96 91t45 127t13.5 155.5q0 190 -66.5 299t-242.5 109q-92 0 -156.5 -32t-96.5 -91t-45.5 -127t-13.5 -158zM410 1116l174 299h137 l-195 -299h-116z" />
<glyph unicode="&#x2018;" horiz-adv-x="976" d="M92 485q0 227 99.5 366.5t318.5 139.5q190 0 282.5 -124.5t92.5 -321.5v-82h-690q4 -184 80.5 -283.5t254.5 -99.5q168 0 252 108l78 -61q-111 -145 -330 -145q-438 0 -438 503zM197 561h587q-4 332 -274 332q-293 0 -313 -332zM219 1198q0 37 25.5 63.5t62.5 26.5 t63.5 -26.5t26.5 -63.5q0 -35 -26.5 -61.5t-63.5 -26.5t-62.5 26.5t-25.5 61.5zM623 1198q0 37 26.5 63.5t63.5 26.5q35 0 61.5 -26.5t26.5 -63.5q0 -35 -26.5 -61.5t-61.5 -26.5q-37 0 -63.5 26.5t-26.5 61.5z" />
<glyph unicode="&#x2019;" horiz-adv-x="434" d="M135 1116l174 299h137l-194 -299h-117zM168 0v979h98v-979h-98z" />
<glyph unicode="&#x201a;" horiz-adv-x="1173" d="M92 715q0 145 29 269t90 231.5t174 170t266 62.5q139 0 236.5 -54.5t193.5 -170.5l-77 -66q-80 98 -159 142t-194 44q-131 0 -224 -54t-141 -149.5t-68.5 -198.5t-20.5 -226t20.5 -226.5t68.5 -198.5t141 -149.5t224 -54.5q115 0 194 44t159 142l77 -65 q-166 -203 -366 -221l55 -131l-133 -256h-135l168 264l-52 121q-147 8 -253.5 73.5t-164 172t-83 226t-25.5 259.5z" />
<glyph unicode="&#x201c;" horiz-adv-x="434" d="M23 1415h137l174 -299h-117zM168 0v979h98v-979h-98z" />
<glyph unicode="&#x201d;" horiz-adv-x="434" d="M-53 1092l186 299h156l186 -299h-119l-145 249l-148 -249h-116zM168 0v979h98v-979h-98z" />
<glyph unicode="&#x201e;" horiz-adv-x="1269" d="M154 0v1430h110l750 -1244v1244h102v-1430h-110l-748 1243v-1243h-104zM330 1661q76 100 168 100q59 0 156.5 -44t140.5 -44q45 0 92 64l78 -62q-80 -100 -170 -100q-59 0 -156.5 44t-140.5 44q-20 0 -40 -11.5t-26 -18.5t-26 -34z" />
<glyph unicode="&#x2022;" horiz-adv-x="434" d="M-39 1198q0 37 25.5 63.5t62.5 26.5t63.5 -26.5t26.5 -63.5q0 -35 -26.5 -61.5t-63.5 -26.5t-62.5 26.5t-25.5 61.5zM168 0v979h98v-979h-98zM299 1198q0 37 25.5 63.5t62.5 26.5t62.5 -26.5t25.5 -63.5q0 -35 -25.5 -61.5t-62.5 -26.5t-62.5 26.5t-25.5 61.5z" />
<glyph unicode="&#x2026;" horiz-adv-x="1302" d="M92 715q0 145 29 269t90 231.5t174 170t266.5 62.5t266 -62.5t174 -170t90 -231.5t28.5 -269q0 -152 -28.5 -277t-90 -231.5t-174 -165.5t-266 -59t-266.5 59t-174 165.5t-90 231.5t-29 277zM197 715q0 -123 20.5 -226.5t68.5 -198.5t141 -149.5t224 -54.5t225.5 54.5 t142.5 149.5t68.5 198.5t20.5 226.5t-20.5 226t-68.5 198.5t-142.5 149.5t-225.5 54t-224 -54t-141 -149.5t-68.5 -198.5t-20.5 -226zM342 1675q0 37 26.5 63.5t63.5 26.5q35 0 61.5 -26.5t26.5 -63.5q0 -35 -26.5 -61.5t-61.5 -26.5q-37 0 -63.5 26.5t-26.5 61.5zM766 1675 q0 37 26.5 63.5t63.5 26.5q35 0 61.5 -26.5t26.5 -63.5q0 -35 -26.5 -61.5t-61.5 -26.5q-37 0 -63.5 26.5t-26.5 61.5z" />
<glyph unicode="&#x202f;" horiz-adv-x="377" />
<glyph unicode="&#x2039;" horiz-adv-x="944" d="M92 276q0 135 96.5 211t233.5 76h143q119 0 164 49v95q0 82 -72.5 134t-156.5 52q-94 0 -167 -40t-100 -122l-94 29q84 231 365 231q123 0 223 -78.5t100 -199.5v-609l35 -94l-90 -26l-39 98q-129 -102 -295 -102q-150 0 -248 76.5t-98 219.5zM160 1204q76 100 168 101 q61 0 157.5 -44t139.5 -44q23 0 41 10t26 20t27 33l76 -61q-76 -100 -168 -101q-61 0 -157.5 44t-139.5 44q-16 0 -28.5 -3t-28 -17.5t-17.5 -17.5t-20 -25zM193 276q0 -96 71.5 -147t173.5 -51q164 0 291 129v293q-55 -31 -139 -31h-168q-96 0 -162.5 -50t-66.5 -143z" />
<glyph unicode="&#x203a;" d="M92 485q0 506 410 506q407 0 407 -506q0 -504 -407 -503q-410 0 -410 503zM190 485q0 -188 67 -296.5t243 -108.5q92 0 156.5 31.5t96 91t45 127t13.5 155.5q0 190 -66.5 299t-242.5 109q-92 0 -156.5 -32t-96.5 -91t-45.5 -127t-13.5 -158zM193 1204q76 100 167 101 q59 0 156.5 -44t140.5 -44q23 0 41.5 10t26.5 20t27 33l75 -61q-76 -100 -168 -101q-59 0 -156 44t-141 44q-16 0 -28 -3t-27.5 -17.5t-17.5 -17.5t-21 -25z" />
<glyph unicode="&#x205f;" horiz-adv-x="471" />
<glyph unicode="&#x20ac;" horiz-adv-x="1263" d="M20 0l547 1430h129l547 -1430h-110l-168 436h-666l-168 -436h-111zM328 1675q0 37 26.5 63.5t63.5 26.5t62.5 -26.5t25.5 -63.5t-25.5 -62.5t-62.5 -25.5t-63.5 25.5t-26.5 62.5zM336 535h592l-297 776zM752 1675q0 37 26.5 63.5t63.5 26.5t62.5 -26.5t25.5 -63.5 t-25.5 -62.5t-62.5 -25.5t-63.5 25.5t-26.5 62.5z" />
<glyph unicode="&#x2122;" d="M92 485q0 506 410 506q407 0 407 -506q0 -504 -407 -503q-410 0 -410 503zM190 485q0 -188 67 -296.5t243 -108.5q92 0 156.5 31.5t96 91t45 127t13.5 155.5q0 90 -12.5 158t-45 127t-96 91t-155.5 32q-94 0 -157.5 -32t-96.5 -91t-45.5 -127t-12.5 -158zM236 1092 l186 299h156l186 -299h-119l-147 249l-146 -249h-116z" />
<glyph unicode="&#x25fc;" horiz-adv-x="983" d="M0 0v983h983v-983h-983z" />
</font>
</defs>
</svg>
